<svg width="40" height="38" viewBox="0 0 40 38" fill="none" xmlns="http://www.w3.org/2000/svg">
<path d="M36.6667 0H3.33333C1.51667 0.0844444 0.0666667 1.92111 0 4.22222V33.7778C0.0666667 36.0789 1.51667 37.9156 3.33333 38H36.6667C38.4833 37.9156 39.9333 36.0789 40 33.7778V4.22222C39.9693 3.11479 39.6083 2.06328 38.9897 1.27972C38.3711 0.496169 37.541 0.0388559 36.6667 0ZM36.6667 33.7778H3.33333V4.22222H36.6667V33.7778ZM23.3333 29.5556V26.9167C23.3333 23.4122 17.7667 21.6389 15 21.6389C12.2333 21.6389 6.66667 23.4122 6.66667 26.9167V29.5556H23.3333ZM15 8.44444C13.8949 8.44444 12.8351 9.00049 12.0537 9.99027C11.2723 10.98 10.8333 12.3225 10.8333 13.7222C10.8333 14.4153 10.9411 15.1016 11.1505 15.7419C11.3599 16.3823 11.6668 16.9641 12.0537 17.4542C12.8351 18.444 13.8949 19 15 19C15.5472 19 16.089 18.8635 16.5945 18.5983C17.1 18.333 17.5594 17.9443 17.9463 17.4542C18.3332 16.9641 18.6401 16.3823 18.8495 15.7419C19.0589 15.1016 19.1667 14.4153 19.1667 13.7222C19.1667 13.0291 19.0589 12.3428 18.8495 11.7025C18.6401 11.0622 18.3332 10.4804 17.9463 9.99027C17.5594 9.50018 17.1 9.11142 16.5945 8.84619C16.089 8.58096 15.5472 8.44444 15 8.44444ZM23.3333 8.44444V10.5556H33.3333V8.44444H23.3333ZM23.3333 12.6667V14.7778H33.3333V12.6667H23.3333ZM23.3333 16.8889V19H30V16.8889H23.3333Z" fill="#DED27C"/>
</svg>
